<mxfile host="app.diagrams.net" agent="Mozilla/5.0 (Windows NT 10.0; Win64; x64) AppleWebKit/537.36 (KHTML, like Gecko) Chrome/139.0.0.0 Safari/537.36" version="28.1.2">
  <diagram name="Page-1" id="e7e014a7-5840-1c2e-5031-d8a46d1fe8dd">
    <mxGraphModel dx="1042" dy="562" grid="1" gridSize="10" guides="1" tooltips="1" connect="1" arrows="1" fold="1" page="1" pageScale="1" pageWidth="1169" pageHeight="826" background="none" math="0" shadow="0">
      <root>
        <mxCell id="0" />
        <mxCell id="1" parent="0" />
        <mxCell id="2" value="Teknisi" style="swimlane;whiteSpace=wrap" parent="1" vertex="1">
          <mxGeometry x="164.5" y="128" width="280" height="552" as="geometry" />
        </mxCell>
        <mxCell id="-RHxQ0LXYHyfCip4j9Q0-60" value="" style="edgeStyle=orthogonalEdgeStyle;rounded=0;orthogonalLoop=1;jettySize=auto;html=1;exitX=0.5;exitY=1;exitDx=0;exitDy=0;" edge="1" parent="2" source="-RHxQ0LXYHyfCip4j9Q0-70" target="-RHxQ0LXYHyfCip4j9Q0-59">
          <mxGeometry relative="1" as="geometry">
            <mxPoint x="140.08333333333326" y="302" as="sourcePoint" />
          </mxGeometry>
        </mxCell>
        <mxCell id="-RHxQ0LXYHyfCip4j9Q0-72" style="edgeStyle=orthogonalEdgeStyle;rounded=0;orthogonalLoop=1;jettySize=auto;html=1;entryX=0.5;entryY=0;entryDx=0;entryDy=0;" edge="1" parent="2" source="-RHxQ0LXYHyfCip4j9Q0-59" target="-RHxQ0LXYHyfCip4j9Q0-71">
          <mxGeometry relative="1" as="geometry" />
        </mxCell>
        <mxCell id="-RHxQ0LXYHyfCip4j9Q0-59" value="Pekerjaan selesai?" style="rhombus;whiteSpace=wrap;html=1;rounded=0;" vertex="1" parent="2">
          <mxGeometry x="100" y="322" width="80" height="80" as="geometry" />
        </mxCell>
        <mxCell id="-RHxQ0LXYHyfCip4j9Q0-70" value="Teknisi ditugaskan menangani kendaraan" style="rounded=0;whiteSpace=wrap;html=1;" vertex="1" parent="2">
          <mxGeometry x="75.25" y="242" width="129.5" height="60" as="geometry" />
        </mxCell>
        <mxCell id="-RHxQ0LXYHyfCip4j9Q0-74" style="edgeStyle=orthogonalEdgeStyle;rounded=0;orthogonalLoop=1;jettySize=auto;html=1;entryX=0;entryY=0.5;entryDx=0;entryDy=0;exitX=0;exitY=0.5;exitDx=0;exitDy=0;" edge="1" parent="2" source="-RHxQ0LXYHyfCip4j9Q0-71" target="-RHxQ0LXYHyfCip4j9Q0-59">
          <mxGeometry relative="1" as="geometry" />
        </mxCell>
        <mxCell id="-RHxQ0LXYHyfCip4j9Q0-71" value="Teknisi lain&amp;nbsp;&lt;div&gt;menangani&amp;nbsp;&lt;/div&gt;&lt;div&gt;kendaraan&lt;/div&gt;" style="rounded=0;whiteSpace=wrap;html=1;" vertex="1" parent="2">
          <mxGeometry x="75.25" y="432" width="129.5" height="60" as="geometry" />
        </mxCell>
        <mxCell id="3" value="Sistem" style="swimlane;whiteSpace=wrap" parent="1" vertex="1">
          <mxGeometry x="444.5" y="128" width="280" height="552" as="geometry" />
        </mxCell>
        <mxCell id="-RHxQ0LXYHyfCip4j9Q0-44" style="edgeStyle=orthogonalEdgeStyle;rounded=0;orthogonalLoop=1;jettySize=auto;html=1;entryX=0.5;entryY=0;entryDx=0;entryDy=0;" edge="1" parent="3" source="5" target="-RHxQ0LXYHyfCip4j9Q0-43">
          <mxGeometry relative="1" as="geometry" />
        </mxCell>
        <mxCell id="5" value="" style="ellipse;shape=startState;fillColor=#000000;strokeColor=#ff0000;" parent="3" vertex="1">
          <mxGeometry x="125.5" y="32" width="30" height="30" as="geometry" />
        </mxCell>
        <mxCell id="-RHxQ0LXYHyfCip4j9Q0-52" style="edgeStyle=orthogonalEdgeStyle;rounded=0;orthogonalLoop=1;jettySize=auto;html=1;entryX=0.5;entryY=0;entryDx=0;entryDy=0;" edge="1" parent="3" source="-RHxQ0LXYHyfCip4j9Q0-43" target="-RHxQ0LXYHyfCip4j9Q0-51">
          <mxGeometry relative="1" as="geometry" />
        </mxCell>
        <mxCell id="-RHxQ0LXYHyfCip4j9Q0-43" value="Kendaraan masuk bengkel" style="rounded=0;whiteSpace=wrap;html=1;" vertex="1" parent="3">
          <mxGeometry x="75.75" y="82" width="129.5" height="60" as="geometry" />
        </mxCell>
        <mxCell id="-RHxQ0LXYHyfCip4j9Q0-55" style="edgeStyle=orthogonalEdgeStyle;rounded=0;orthogonalLoop=1;jettySize=auto;html=1;entryX=0.5;entryY=0;entryDx=0;entryDy=0;" edge="1" parent="3" source="-RHxQ0LXYHyfCip4j9Q0-51" target="-RHxQ0LXYHyfCip4j9Q0-53">
          <mxGeometry relative="1" as="geometry" />
        </mxCell>
        <mxCell id="-RHxQ0LXYHyfCip4j9Q0-51" value="Terima laporan kerusakan dari pelanggan" style="rounded=0;whiteSpace=wrap;html=1;" vertex="1" parent="3">
          <mxGeometry x="75.5" y="162" width="129.5" height="60" as="geometry" />
        </mxCell>
        <mxCell id="-RHxQ0LXYHyfCip4j9Q0-53" value="Pilih teknisi berdasarkan pengalaman &amp;amp; perkiraan kemampuan" style="rounded=0;whiteSpace=wrap;html=1;" vertex="1" parent="3">
          <mxGeometry x="75.5" y="242" width="129.5" height="60" as="geometry" />
        </mxCell>
        <mxCell id="-RHxQ0LXYHyfCip4j9Q0-66" style="edgeStyle=orthogonalEdgeStyle;rounded=0;orthogonalLoop=1;jettySize=auto;html=1;entryX=0.5;entryY=0;entryDx=0;entryDy=0;" edge="1" parent="3" source="-RHxQ0LXYHyfCip4j9Q0-63" target="-RHxQ0LXYHyfCip4j9Q0-65">
          <mxGeometry relative="1" as="geometry" />
        </mxCell>
        <mxCell id="-RHxQ0LXYHyfCip4j9Q0-63" value="Mencatat hasil pekerjaan" style="rounded=0;whiteSpace=wrap;html=1;" vertex="1" parent="3">
          <mxGeometry x="75.75" y="332" width="129.5" height="60" as="geometry" />
        </mxCell>
        <mxCell id="-RHxQ0LXYHyfCip4j9Q0-68" style="edgeStyle=orthogonalEdgeStyle;rounded=0;orthogonalLoop=1;jettySize=auto;html=1;entryX=0.5;entryY=0;entryDx=0;entryDy=0;" edge="1" parent="3" source="-RHxQ0LXYHyfCip4j9Q0-65" target="-RHxQ0LXYHyfCip4j9Q0-67">
          <mxGeometry relative="1" as="geometry" />
        </mxCell>
        <mxCell id="-RHxQ0LXYHyfCip4j9Q0-65" value="Menyerahkan kendaraan ke pelanggan" style="rounded=0;whiteSpace=wrap;html=1;" vertex="1" parent="3">
          <mxGeometry x="75.5" y="422" width="129.5" height="60" as="geometry" />
        </mxCell>
        <mxCell id="-RHxQ0LXYHyfCip4j9Q0-67" value="" style="ellipse;html=1;shape=endState;fillColor=#000000;strokeColor=#ff0000;" vertex="1" parent="3">
          <mxGeometry x="125.5" y="512" width="30" height="30" as="geometry" />
        </mxCell>
        <mxCell id="-RHxQ0LXYHyfCip4j9Q0-58" value="" style="edgeStyle=orthogonalEdgeStyle;rounded=0;orthogonalLoop=1;jettySize=auto;html=1;entryX=1;entryY=0.5;entryDx=0;entryDy=0;" edge="1" parent="1" source="-RHxQ0LXYHyfCip4j9Q0-53" target="-RHxQ0LXYHyfCip4j9Q0-70">
          <mxGeometry relative="1" as="geometry">
            <mxPoint x="369" y="400" as="targetPoint" />
          </mxGeometry>
        </mxCell>
        <mxCell id="-RHxQ0LXYHyfCip4j9Q0-64" style="edgeStyle=orthogonalEdgeStyle;rounded=0;orthogonalLoop=1;jettySize=auto;html=1;entryX=0;entryY=0.5;entryDx=0;entryDy=0;" edge="1" parent="1" source="-RHxQ0LXYHyfCip4j9Q0-59" target="-RHxQ0LXYHyfCip4j9Q0-63">
          <mxGeometry relative="1" as="geometry" />
        </mxCell>
        <mxCell id="-RHxQ0LXYHyfCip4j9Q0-69" value="Ya" style="text;html=1;align=center;verticalAlign=middle;resizable=0;points=[];autosize=1;strokeColor=none;fillColor=none;" vertex="1" parent="1">
          <mxGeometry x="340" y="468" width="40" height="30" as="geometry" />
        </mxCell>
        <mxCell id="-RHxQ0LXYHyfCip4j9Q0-73" value="Tidak" style="text;html=1;align=center;verticalAlign=middle;resizable=0;points=[];autosize=1;strokeColor=none;fillColor=none;" vertex="1" parent="1">
          <mxGeometry x="299" y="528" width="50" height="30" as="geometry" />
        </mxCell>
      </root>
    </mxGraphModel>
  </diagram>
</mxfile>
